<svg width="80" height="80" viewBox="0 0 80 80" fill="none" xmlns="http://www.w3.org/2000/svg">
<g clip-path="url(#clip0_252_490)">
<path d="M14.6125 27.8129C13.675 28.9254 12.175 29.8004 10.675 29.6754C10.4875 28.1754 11.225 26.5754 12.0875 25.6004C13.025 24.4629 14.6625 23.6504 16 23.5879C16.15 25.1379 15.5375 26.6754 14.6125 27.8129ZM15.975 29.9629C13.8 29.8379 11.9375 31.2004 10.9125 31.2004C9.86249 31.2004 8.28749 30.0254 6.56249 30.0629C4.32499 30.1004 2.24999 31.3629 1.11249 33.3754C-1.23751 37.4129 0.499987 43.3754 2.77499 46.6629C3.88749 48.2879 5.21249 50.0754 6.96249 50.0129C8.62499 49.9504 9.27499 48.9379 11.275 48.9379C13.2875 48.9379 13.875 50.0129 15.625 49.9879C17.4375 49.9504 18.575 48.3629 19.6875 46.7379C20.95 44.8879 21.475 43.1004 21.5 43.0004C21.4625 42.9629 18 41.6379 17.9625 37.6379C17.925 34.2879 20.7 32.7004 20.825 32.6004C19.2625 30.2754 16.825 30.0254 15.975 29.9629ZM28.525 25.4379V49.8004H32.3125V41.4754H37.55C42.3375 41.4754 45.6875 38.1879 45.6875 33.4379C45.6875 28.6879 42.3875 25.4379 37.675 25.4379H28.525ZM32.3125 28.6254H36.675C39.9625 28.6254 41.8375 30.3754 41.8375 33.4504C41.8375 36.5254 39.9625 38.3004 36.6625 38.3004H32.3125V28.6254ZM52.5875 49.9879C54.9625 49.9879 57.1625 48.7879 58.1625 46.8754H58.2375V49.8004H61.7375V37.6754C61.7375 34.1629 58.925 31.8879 54.6 31.8879C50.5875 31.8879 47.6125 34.1879 47.5 37.3379H50.9125C51.2 35.8379 52.5875 34.8504 54.4875 34.8504C56.8 34.8504 58.1 35.9254 58.1 37.9129V39.2629L53.375 39.5504C48.9875 39.8129 46.6125 41.6129 46.6125 44.7379C46.625 47.8879 49.075 49.9879 52.5875 49.9879ZM53.6125 47.1004C51.6 47.1004 50.3125 46.1254 50.3125 44.6504C50.3125 43.1129 51.55 42.2254 53.9125 42.0879L58.1125 41.8254V43.2004C58.1125 45.4754 56.175 47.1004 53.6125 47.1004ZM66.425 56.4254C70.1125 56.4254 71.85 55.0129 73.3625 50.7504L80 32.1254H76.15L71.7 46.5129H71.625L67.175 32.1254H63.225L69.625 49.8629L69.275 50.9379C68.7 52.7629 67.7625 53.4754 66.0875 53.4754C65.7875 53.4754 65.2125 53.4379 64.975 53.4129V56.3379C65.2 56.3879 66.1375 56.4254 66.425 56.4254Z" fill="url(#paint0_linear_252_490)"/>
</g>
<defs>
<linearGradient id="paint0_linear_252_490" x1="-1645.06" y1="23.5879" x2="-1645" y2="56.4304" gradientUnits="userSpaceOnUse">
<stop stop-color="white"/>
<stop offset="1" stop-color="#E6E7E8"/>
</linearGradient>
<clipPath id="clip0_252_490">
<rect width="80" height="80" fill="white"/>
</clipPath>
</defs>
</svg>
