<svg width="115" height="80" viewBox="0 0 115 80" fill="none" xmlns="http://www.w3.org/2000/svg">
<path d="M90 0H70L68.46 12.32L66 32.01L60 80H75L78.75 50H90C103.81 50 115 38.81 115 25C115 11.19 103.81 0 90 0ZM90 35H80.62L81.2599 29.86L82.74 18.14L83.1299 15H90C95.53 15 100 19.48 100 25C100 30.52 95.53 35 90 35Z" fill="#FEE000"/>
<path d="M55 25C55 11.19 43.81 0 30 0H10L8.45996 12.32L6 32.01L0 80H30C43.81 80 55 68.81 55 55C55 49.37 53.14 44.18 50 40C53.14 35.82 55 30.63 55 25ZM30 65H16.8799L19.36 45.09H29.96C35.45 45.09 39.91 49.55 39.91 55.05C39.91 60.55 35.47 64.98 30 65ZM30 34.91H20.64L21.28 29.75L22.73 18.18L23.1299 15H30C35.5 15 39.96 19.46 39.96 24.95C39.96 30.44 35.5 34.91 30 34.91Z" fill="white"/>
</svg>
