<svg width="80" height="80" viewBox="0 0 80 80" fill="none" xmlns="http://www.w3.org/2000/svg">
<g clip-path="url(#clip0_252_487)">
<path d="M13.2099 24.1162C10.7608 24.1152 8.35974 24.7956 6.27523 26.0813C4.19072 27.367 2.505 29.2072 1.40661 31.3962C0.480913 33.2365 -0.0012207 35.2679 -0.0012207 37.3279C-0.0012207 39.3879 0.480913 41.4193 1.40661 43.2595C2.505 45.4485 4.19072 47.2888 6.27523 48.5745C8.35974 49.8601 10.7608 50.5405 13.2099 50.5395C16.7766 50.5395 19.7766 49.3662 21.9666 47.3495C24.4599 45.0495 25.8999 41.6495 25.8999 37.6295C25.8949 36.7292 25.8168 35.8307 25.6666 34.9429H13.2133V40.0295H20.3466C20.2005 40.8418 19.8919 41.6162 19.4395 42.3064C18.987 42.9965 18.3999 43.5883 17.7133 44.0462C16.5266 44.8495 14.9999 45.3095 13.2133 45.3095C9.76661 45.3095 6.84327 42.9862 5.79661 39.8562C5.24504 38.2158 5.24504 36.44 5.79661 34.7995C6.84327 31.6662 9.76661 29.3462 13.2133 29.3462C15.0967 29.3147 16.9169 30.026 18.2799 31.3262L22.0533 27.5595C19.6639 25.31 16.4914 24.0755 13.2099 24.1162ZM34.8799 25.9495V48.9495H37.8333V39.6329H42.7166C44.7255 39.6329 46.4166 38.9795 47.7899 37.6729C48.4738 37.0602 49.017 36.3069 49.3823 35.4645C49.7477 34.6222 49.9265 33.7108 49.9066 32.7929C49.9205 31.8797 49.7388 30.9742 49.3737 30.1371C49.0086 29.2999 48.4686 28.5507 47.7899 27.9395C47.1173 27.2895 46.3228 26.7787 45.4522 26.4366C44.5815 26.0945 43.6519 25.9279 42.7166 25.9462L34.8799 25.9495ZM42.9699 28.7829C43.4852 28.7926 43.9933 28.9053 44.4645 29.1142C44.9356 29.3231 45.3602 29.6242 45.7133 29.9995C46.0888 30.3648 46.3874 30.8017 46.5912 31.2844C46.7951 31.767 46.9001 32.2856 46.9001 32.8095C46.9001 33.3335 46.7951 33.8521 46.5912 34.3347C46.3874 34.8174 46.0888 35.2542 45.7133 35.6195C45.3358 36.0107 44.8808 36.3186 44.3774 36.5235C43.8739 36.7284 43.3332 36.8259 42.7899 36.8095H37.8333V28.7829H42.9699ZM56.7166 32.6995C53.9122 32.6995 51.7933 33.7273 50.3599 35.7829L52.9633 37.4195C53.9233 36.0284 55.2288 35.3329 56.8799 35.3329C57.9329 35.3183 58.9524 35.703 59.7333 36.4095C60.1198 36.7263 60.4301 37.126 60.6413 37.5789C60.8524 38.0319 60.9591 38.5265 60.9533 39.0262V39.6995C59.8199 39.0551 58.3755 38.734 56.6199 38.7362C54.5622 38.7362 52.9188 39.2184 51.6899 40.1829C50.4566 41.1429 49.841 42.4373 49.8433 44.0662C49.8308 44.7981 49.9814 45.5236 50.2841 46.1901C50.5868 46.8565 51.034 47.4473 51.5933 47.9195C52.7599 48.9484 54.2099 49.4629 55.9433 49.4629C57.9766 49.4629 59.6044 48.5629 60.8266 46.7629H60.9533V48.9462H63.7799V39.2495C63.7799 37.2162 63.1488 35.6162 61.8866 34.4495C60.6199 33.2829 58.8966 32.6995 56.7166 32.6995ZM64.2599 33.2129L70.7466 47.9529L67.0866 55.8862H70.1366L79.9999 33.2095H76.7833L72.2233 44.5129H72.1566L67.4699 33.2129H64.2599ZM57.1066 41.1062C58.7533 41.1062 60.0377 41.4729 60.9599 42.2062C60.9599 43.4462 60.4711 44.5273 59.4933 45.4495C59.0582 45.8881 58.5405 46.2359 57.97 46.4727C57.3995 46.7096 56.7877 46.8309 56.1699 46.8295C55.3369 46.8457 54.524 46.5724 53.8699 46.0562C53.5659 45.8356 53.3188 45.5458 53.149 45.2108C52.9791 44.8758 52.8915 44.5051 52.8933 44.1295C52.8933 43.2784 53.2966 42.5595 54.1033 41.9729C54.9033 41.3951 55.9066 41.1062 57.1066 41.1062Z" fill="url(#paint0_linear_252_487)"/>
</g>
<defs>
<linearGradient id="paint0_linear_252_487" x1="-1644.95" y1="24.1152" x2="-1644.88" y2="55.891" gradientUnits="userSpaceOnUse">
<stop stop-color="white"/>
<stop offset="1" stop-color="#E6E7E8"/>
</linearGradient>
<clipPath id="clip0_252_487">
<rect width="80" height="80" fill="white"/>
</clipPath>
</defs>
</svg>
