<svg width="64" height="64" viewBox="0 0 64 64" fill="none" xmlns="http://www.w3.org/2000/svg">
<path fill-rule="evenodd" clip-rule="evenodd" d="M13.3334 2.66699C10.5044 2.66699 7.79133 3.7908 5.79094 5.79119C3.79055 7.79157 2.66675 10.5047 2.66675 13.3337V50.667C2.66675 53.496 3.79055 56.2091 5.79094 58.2095C7.79133 60.2098 10.5044 61.3337 13.3334 61.3337H50.6667C53.4957 61.3337 56.2088 60.2098 58.2092 58.2095C60.2096 56.2091 61.3334 53.496 61.3334 50.667V13.3337C61.3334 10.5047 60.2096 7.79157 58.2092 5.79119C56.2088 3.7908 53.4957 2.66699 50.6667 2.66699H13.3334ZM12.0001 24.0003C12.0001 20.8177 13.2644 17.7655 15.5148 15.515C17.7652 13.2646 20.8175 12.0003 24.0001 12.0003H40.0001C43.1827 12.0003 46.2349 13.2646 48.4854 15.515C50.7358 17.7655 52.0001 20.8177 52.0001 24.0003V40.0003C52.0001 43.1829 50.7358 46.2352 48.4854 48.4856C46.2349 50.736 43.1827 52.0003 40.0001 52.0003H24.0001C20.8175 52.0003 17.7652 50.736 15.5148 48.4856C13.2644 46.2352 12.0001 43.1829 12.0001 40.0003V24.0003ZM24.0001 14.667C21.5247 14.667 19.1508 15.6503 17.4004 17.4007C15.6501 19.151 14.6667 21.525 14.6667 24.0003V40.0003C14.6667 42.4757 15.6501 44.8496 17.4004 46.6C19.1508 48.3503 21.5247 49.3337 24.0001 49.3337H40.0001C42.4754 49.3337 44.8494 48.3503 46.5997 46.6C48.3501 44.8496 49.3334 42.4757 49.3334 40.0003V24.0003C49.3334 21.525 48.3501 19.151 46.5997 17.4007C44.8494 15.6503 42.4754 14.667 40.0001 14.667H24.0001ZM45.3334 21.779C45.3334 22.3685 45.0992 22.9338 44.6824 23.3507C44.2656 23.7675 43.7002 24.0017 43.1107 24.0017C42.5213 24.0017 41.9559 23.7675 41.5391 23.3507C41.1223 22.9338 40.8881 22.3685 40.8881 21.779C40.8881 21.1895 41.1223 20.6242 41.5391 20.2073C41.9559 19.7905 42.5213 19.5563 43.1107 19.5563C43.7002 19.5563 44.2656 19.7905 44.6824 20.2073C45.0992 20.6242 45.3334 21.1895 45.3334 21.779ZM21.7787 32.0003C21.7787 29.2895 22.8556 26.6896 24.7725 24.7727C26.6894 22.8559 29.2892 21.779 32.0001 21.779C34.7109 21.779 37.3108 22.8559 39.2277 24.7727C41.1445 26.6896 42.2214 29.2895 42.2214 32.0003C42.2214 34.7112 41.1445 37.311 39.2277 39.2279C37.3108 41.1448 34.7109 42.2217 32.0001 42.2217C29.2892 42.2217 26.6894 41.1448 24.7725 39.2279C22.8556 37.311 21.7787 34.7112 21.7787 32.0003ZM32.0001 24.4457C29.9965 24.4457 28.0749 25.2416 26.6581 26.6584C25.2413 28.0751 24.4454 29.9967 24.4454 32.0003C24.4454 34.0039 25.2413 35.9255 26.6581 37.3423C28.0749 38.7591 29.9965 39.555 32.0001 39.555C34.0037 39.555 35.9253 38.7591 37.342 37.3423C38.7588 35.9255 39.5547 34.0039 39.5547 32.0003C39.5547 29.9967 38.7588 28.0751 37.342 26.6584C35.9253 25.2416 34.0037 24.4457 32.0001 24.4457Z" fill="url(#paint0_linear_252_532)"/>
<defs>
<linearGradient id="paint0_linear_252_532" x1="-1203.61" y1="2.66699" x2="-1203.31" y2="61.3413" gradientUnits="userSpaceOnUse">
<stop stop-color="white"/>
<stop offset="1" stop-color="#E6E7E8"/>
</linearGradient>
</defs>
</svg>
