<svg width="80" height="80" viewBox="0 0 80 80" fill="none" xmlns="http://www.w3.org/2000/svg">
<path d="M37.8099 60.103C38.0054 60.2675 38.2066 60.4297 38.4132 60.5897C34.3574 63.2867 29.5939 64.7226 24.7232 64.7164C20.8659 64.7163 17.0622 63.8136 13.6162 62.0804C10.1702 60.3471 7.17765 57.8316 4.87787 54.7349C2.57808 51.6381 1.03489 48.0462 0.371736 44.2463C-0.291423 40.4464 -0.0561486 36.5441 1.05874 32.8515C2.17363 29.1588 4.13719 25.7783 6.79238 22.9803C9.44756 20.1823 12.7207 18.0445 16.3499 16.7378C19.9792 15.4312 23.8638 14.992 27.6932 15.4554C31.5226 15.9187 35.1904 17.2718 38.4032 19.4064C38.2032 19.5764 38.0032 19.733 37.8532 19.9064C34.9652 22.3974 32.6481 25.4817 31.0599 28.9492C29.4717 32.4167 28.6497 36.1858 28.6499 39.9997C28.6516 43.8105 29.4701 47.5767 31.0502 51.0445C32.6303 54.5124 34.9353 57.6012 37.8099 60.103ZM55.2799 15.2797C50.2132 15.2797 45.5099 16.7997 41.5966 19.4064C41.7966 19.5764 41.9966 19.733 42.1466 19.9064C45.0346 22.3974 47.3516 25.4817 48.9399 28.9492C50.5281 32.4167 51.3501 36.1858 51.3499 39.9997C51.3482 43.8105 50.5297 47.5767 48.9496 51.0445C47.3695 54.5124 45.0645 57.6012 42.1899 60.103C41.9943 60.2675 41.7932 60.4297 41.5866 60.5897C45.6424 63.2867 50.4059 64.7226 55.2766 64.7164C58.5231 64.7177 61.738 64.0793 64.7378 62.8377C67.7375 61.5961 70.4632 59.7757 72.7592 57.4804C75.0551 55.185 76.8763 52.4598 78.1187 49.4604C79.3611 46.461 80.0003 43.2462 79.9999 39.9997C79.999 33.4438 77.3943 27.1567 72.7586 22.521C68.1229 17.8853 61.8358 15.2806 55.2799 15.2797ZM39.9999 20.5797C39.6799 20.8264 39.3688 21.083 39.0666 21.3497C36.3951 23.6671 34.2532 26.5318 32.786 29.7497C31.3189 32.9675 30.5608 36.4632 30.5632 39.9997C30.5577 43.7413 31.4047 47.4351 33.0398 50.8005C34.6748 54.166 37.0551 57.1148 39.9999 59.423C40.3199 59.1741 40.631 58.9164 40.9332 58.6497C43.6047 56.3323 45.7466 53.4676 47.2138 50.2498C48.6809 47.0319 49.439 43.5362 49.4366 39.9997C49.4415 36.2586 48.5944 32.5656 46.9593 29.2007C45.3242 25.8359 42.9442 22.8876 39.9999 20.5797Z" fill="url(#paint0_linear_252_484)"/>
<defs>
<linearGradient id="paint0_linear_252_484" x1="-1644.84" y1="15.2764" x2="-1644.69" y2="64.7236" gradientUnits="userSpaceOnUse">
<stop stop-color="white"/>
<stop offset="1" stop-color="#E6E7E8"/>
</linearGradient>
</defs>
</svg>
