<svg width="64" height="64" viewBox="0 0 64 64" fill="none" xmlns="http://www.w3.org/2000/svg">
<path fill-rule="evenodd" clip-rule="evenodd" d="M13.3334 2.66699C10.5044 2.66699 7.79133 3.7908 5.79094 5.79119C3.79055 7.79157 2.66675 10.5047 2.66675 13.3337V50.667C2.66675 53.496 3.79055 56.2091 5.79094 58.2095C7.79133 60.2098 10.5044 61.3337 13.3334 61.3337H50.6667C53.4957 61.3337 56.2088 60.2098 58.2092 58.2095C60.2096 56.2091 61.3334 53.496 61.3334 50.667V13.3337C61.3334 10.5047 60.2096 7.79157 58.2092 5.79119C56.2088 3.7908 53.4957 2.66699 50.6667 2.66699H13.3334ZM32.0001 12.0003C21.2481 12.0003 12.4534 20.3177 12.4534 30.667C12.4534 36.0643 14.8534 40.9177 18.6667 44.3177V49.3097C18.6667 51.523 21.1921 52.787 22.9627 51.4563L26.7094 48.643C28.4353 49.1032 30.2139 49.3363 32.0001 49.3363C42.7521 49.3363 51.5467 41.0163 51.5467 30.6697C51.5467 20.315 42.7494 12.0003 32.0001 12.0003ZM27.0134 33.5843L21.1947 36.491C20.7387 36.7203 20.2614 36.2137 20.5201 35.771L25.9254 26.5097C26.1797 26.0709 26.5874 25.7418 27.0699 25.5857C27.5524 25.4296 28.0756 25.4576 28.5387 25.6643L35.2294 28.6377C35.5067 28.7611 35.8078 28.8215 36.1112 28.8146C36.4146 28.8077 36.7127 28.7336 36.9841 28.5977L42.8054 25.6883C43.2614 25.459 43.7387 25.9657 43.4801 26.4083L38.0747 35.6723C37.82 36.1106 37.4121 36.4392 36.9296 36.5947C36.4472 36.7503 35.9242 36.7219 35.4614 36.515L28.7707 33.5443C28.4937 33.4205 28.1926 33.3596 27.8892 33.3661C27.5858 33.3725 27.2876 33.4462 27.0161 33.5817L27.0134 33.5843Z" fill="url(#paint0_linear_252_535)"/>
<defs>
<linearGradient id="paint0_linear_252_535" x1="-1203.61" y1="2.66699" x2="-1203.31" y2="61.3413" gradientUnits="userSpaceOnUse">
<stop stop-color="white"/>
<stop offset="1" stop-color="#E6E7E8"/>
</linearGradient>
</defs>
</svg>
