<svg width="64" height="64" viewBox="0 0 64 64" fill="none" xmlns="http://www.w3.org/2000/svg">
<path fill-rule="evenodd" clip-rule="evenodd" d="M13.3334 2.66699C10.5044 2.66699 7.79133 3.7908 5.79094 5.79119C3.79055 7.79157 2.66675 10.5047 2.66675 13.3337V50.667C2.66675 53.496 3.79055 56.2091 5.79094 58.2095C7.79133 60.2098 10.5044 61.3337 13.3334 61.3337H50.6667C53.4957 61.3337 56.2088 60.2098 58.2092 58.2095C60.2096 56.2091 61.3334 53.496 61.3334 50.667V13.3337C61.3334 10.5047 60.2096 7.79157 58.2092 5.79119C56.2088 3.7908 53.4957 2.66699 50.6667 2.66699H13.3334ZM53.3334 32.0003C53.3334 37.6583 51.0858 43.0845 47.085 47.0853C43.0842 51.086 37.658 53.3337 32.0001 53.3337C26.3421 53.3337 20.9159 51.086 16.9151 47.0853C12.9144 43.0845 10.6667 37.6583 10.6667 32.0003C10.6667 26.3424 12.9144 20.9162 16.9151 16.9154C20.9159 12.9146 26.3421 10.667 32.0001 10.667C37.658 10.667 43.0842 12.9146 47.085 16.9154C51.0858 20.9162 53.3334 26.3424 53.3334 32.0003ZM17.4187 31.371C17.4187 31.1737 17.5494 30.9843 17.7334 30.9177L41.6347 21.8057C41.7178 21.7767 41.8069 21.7698 41.8934 21.7857C41.9799 21.8016 42.0608 21.8397 42.1281 21.8963C42.2614 22.011 42.3201 22.2003 42.2801 22.3737L37.5121 42.4217C37.4942 42.4998 37.457 42.5723 37.4039 42.6324C37.3508 42.6924 37.2835 42.7383 37.2081 42.7657C37.1334 42.794 37.0528 42.8032 36.9736 42.7925C36.8945 42.7818 36.8192 42.7515 36.7547 42.7043L27.7547 35.4563L35.7867 28.251C35.8382 28.2036 35.871 28.1395 35.8793 28.07C35.8877 28.0006 35.8709 27.9305 35.8321 27.8723C35.792 27.8146 35.7326 27.7731 35.6646 27.7555C35.5965 27.7379 35.5245 27.7453 35.4614 27.7763L23.5281 33.939L17.7334 31.8243C17.6428 31.7873 17.5648 31.7247 17.5089 31.6443C17.4531 31.5638 17.4218 31.4689 17.4187 31.371Z" fill="url(#paint0_linear_252_504)"/>
<defs>
<linearGradient id="paint0_linear_252_504" x1="-1203.61" y1="2.66699" x2="-1203.31" y2="61.3413" gradientUnits="userSpaceOnUse">
<stop stop-color="white"/>
<stop offset="1" stop-color="#E6E7E8"/>
</linearGradient>
</defs>
</svg>
