<svg width="64" height="64" viewBox="0 0 64 64" fill="none" xmlns="http://www.w3.org/2000/svg">
<path fill-rule="evenodd" clip-rule="evenodd" d="M13.3334 2.66699C10.5044 2.66699 7.79133 3.7908 5.79094 5.79119C3.79055 7.79157 2.66675 10.5047 2.66675 13.3337V50.667C2.66675 53.496 3.79055 56.2091 5.79094 58.2095C7.79133 60.2098 10.5044 61.3337 13.3334 61.3337H50.6667C53.4957 61.3337 56.2088 60.2098 58.2092 58.2095C60.2096 56.2091 61.3334 53.496 61.3334 50.667V13.3337C61.3334 10.5047 60.2096 7.79157 58.2092 5.79119C56.2088 3.7908 53.4957 2.66699 50.6667 2.66699H13.3334ZM32.9067 12.0003H39.2721C39.2721 16.267 42.8774 21.0937 48.3654 21.0937V27.4563C44.5867 27.195 41.3574 26.5763 39.2721 24.7283V41.091C39.2721 45.6377 35.6774 52.0003 27.4561 52.0003C17.4134 52.0003 15.6374 42.907 15.6374 40.1817C15.6374 37.4563 17.2374 28.363 28.3627 28.363V34.7283C25.4534 34.1123 22.0001 36.5443 22.0001 40.1817C22.0001 44.7283 24.7281 45.6377 27.4561 45.6377C30.1841 45.6377 32.9094 42.9097 32.9094 40.1817L32.9067 12.0003Z" fill="url(#paint0_linear_252_541)"/>
<defs>
<linearGradient id="paint0_linear_252_541" x1="-1203.61" y1="2.66699" x2="-1203.31" y2="61.3413" gradientUnits="userSpaceOnUse">
<stop stop-color="white"/>
<stop offset="1" stop-color="#E6E7E8"/>
</linearGradient>
</defs>
</svg>
