<svg width="80" height="80" viewBox="0 0 80 80" fill="none" xmlns="http://www.w3.org/2000/svg">
<path d="M30.3733 27.5401L19.9 52.5267H13.0667L7.91333 32.5834C7.6 31.3567 7.33 30.9067 6.37667 30.3901C4.82333 29.5467 2.25667 28.7567 0 28.2634L0.153333 27.5401H11.1533C11.8722 27.5394 12.5676 27.7956 13.114 28.2626C13.6605 28.7296 14.022 29.3766 14.1333 30.0867L16.8567 44.5467L23.5833 27.5401H30.3733ZM57.15 44.3701C57.1767 37.7734 48.03 37.4101 48.0933 34.4634C48.1133 33.5667 48.9667 32.6134 50.8333 32.3701C53.021 32.1623 55.2241 32.5493 57.21 33.4901L58.3433 28.1901C56.41 27.4627 54.3623 27.0868 52.2967 27.0801C45.9067 27.0801 41.41 30.4801 41.37 35.3434C41.33 38.9401 44.58 40.9434 47.03 42.1434C49.55 43.3667 50.3967 44.1534 50.3833 45.2467C50.3667 46.9267 48.3767 47.6634 46.5167 47.6934C43.2667 47.7434 41.3833 46.8167 39.8767 46.1167L38.7067 51.5901C40.2167 52.2834 43.0033 52.8901 45.8933 52.9167C52.6833 52.9167 57.1267 49.5634 57.15 44.3701ZM74.02 52.5267H80L74.7833 27.5401H69.2633C68.6732 27.5332 68.0948 27.7046 67.6036 28.0316C67.1124 28.3587 66.7313 28.8263 66.51 29.3734L56.8133 52.5267H63.6L64.95 48.7934H73.2433L74.02 52.5267ZM66.81 43.6734L70.21 34.2901L72.17 43.6734H66.81ZM39.61 27.5401L34.2667 52.5267H27.8L33.15 27.5401H39.61Z" fill="url(#paint0_linear_252_482)"/>
<defs>
<linearGradient id="paint0_linear_252_482" x1="-1644.92" y1="27.0801" x2="-1644.88" y2="52.9207" gradientUnits="userSpaceOnUse">
<stop stop-color="white"/>
<stop offset="1" stop-color="#E6E7E8"/>
</linearGradient>
</defs>
</svg>
