<svg width="64" height="64" viewBox="0 0 64 64" fill="none" xmlns="http://www.w3.org/2000/svg">
<path fill-rule="evenodd" clip-rule="evenodd" d="M13.3334 2.66699C10.5044 2.66699 7.79133 3.7908 5.79094 5.79119C3.79055 7.79157 2.66675 10.5047 2.66675 13.3337V50.667C2.66675 53.496 3.79055 56.2091 5.79094 58.2095C7.79133 60.2098 10.5044 61.3337 13.3334 61.3337H50.6667C53.4957 61.3337 56.2088 60.2098 58.2092 58.2095C60.2096 56.2091 61.3334 53.496 61.3334 50.667V13.3337C61.3334 10.5047 60.2096 7.79157 58.2092 5.79119C56.2088 3.7908 53.4957 2.66699 50.6667 2.66699H13.3334ZM12.4427 12.0003C12.1508 12.1088 11.8883 12.284 11.676 12.5118C11.4637 12.7397 11.3076 13.014 11.2201 13.3129C11.1326 13.6117 11.116 13.9269 11.1718 14.2333C11.2276 14.5397 11.3542 14.8288 11.5414 15.0777L26.5121 34.9443L10.7387 51.8643L10.6214 52.0003H16.0801L28.9601 38.1897L38.8587 51.331C39.0884 51.6352 39.4002 51.8674 39.7574 52.0003H51.5494C51.8409 51.8913 52.1029 51.7157 52.3146 51.4876C52.5263 51.2594 52.6818 50.9851 52.7688 50.6863C52.8558 50.3875 52.8719 50.0725 52.8157 49.7664C52.7596 49.4603 52.6328 49.1715 52.4454 48.923L37.4747 29.0563L53.3787 12.0003H47.9121L35.0321 25.8137L25.1281 12.6723C24.8988 12.3672 24.587 12.134 24.2294 12.0003H12.4427ZM41.4561 48.1283L17.1494 15.8723H22.5334L46.8374 48.1257L41.4561 48.1283Z" fill="url(#paint0_linear_252_552)"/>
<defs>
<linearGradient id="paint0_linear_252_552" x1="-1203.61" y1="2.66699" x2="-1203.31" y2="61.3413" gradientUnits="userSpaceOnUse">
<stop stop-color="white"/>
<stop offset="1" stop-color="#E6E7E8"/>
</linearGradient>
</defs>
</svg>
