<svg width="64" height="64" viewBox="0 0 64 64" fill="none" xmlns="http://www.w3.org/2000/svg">
<path fill-rule="evenodd" clip-rule="evenodd" d="M2.66675 13.3337C2.66675 10.5047 3.79055 7.79157 5.79094 5.79119C7.79133 3.7908 10.5044 2.66699 13.3334 2.66699H50.6667C53.4957 2.66699 56.2088 3.7908 58.2092 5.79119C60.2096 7.79157 61.3334 10.5047 61.3334 13.3337V50.667C61.3334 53.496 60.2096 56.2091 58.2092 58.2095C56.2088 60.2098 53.4957 61.3337 50.6667 61.3337H13.3334C10.5044 61.3337 7.79133 60.2098 5.79094 58.2095C3.79055 56.2091 2.66675 53.496 2.66675 50.667V13.3337ZM19.7787 13.227L22.2374 12.0003L24.6721 16.8697L27.1067 12.0003L29.5654 13.227L26.0454 20.267V26.355H23.2987V20.267L19.7787 13.227ZM35.2054 15.3603V23.147C35.2054 24.371 35.6054 25.275 36.2987 25.827C36.5637 26.0403 36.8709 26.1948 37.2001 26.2803C37.7654 26.4297 38.3467 26.3283 38.8694 26.083V26.355H41.6161V15.3603H38.8694V22.219C38.8694 22.219 38.9121 23.4217 38.2241 23.4217C38.0961 23.4217 37.9547 23.2563 37.9547 23.1443V15.3603H35.2054ZM31.0827 15.3603C29.3121 15.3603 27.8774 16.8003 27.8774 18.5683V23.147C27.8774 23.9975 28.2153 24.8131 28.8166 25.4144C29.418 26.0158 30.2336 26.3537 31.0841 26.3537C31.9345 26.3537 32.7502 26.0158 33.3515 25.4144C33.9529 24.8131 34.2907 23.9975 34.2907 23.147V18.5683C34.2907 16.7977 32.8534 15.3603 31.0827 15.3603ZM30.6267 18.5683C30.6356 18.4531 30.6876 18.3454 30.7724 18.2668C30.8572 18.1883 30.9685 18.1446 31.0841 18.1446C31.1997 18.1446 31.311 18.1883 31.3958 18.2668C31.4806 18.3454 31.5326 18.4531 31.5414 18.5683V23.147C31.5462 23.21 31.538 23.2733 31.5172 23.333C31.4964 23.3926 31.4635 23.4473 31.4205 23.4937C31.3776 23.54 31.3255 23.577 31.2677 23.6023C31.2098 23.6276 31.1473 23.6406 31.0841 23.6406C31.0209 23.6406 30.9584 23.6276 30.9005 23.6023C30.8426 23.577 30.7906 23.54 30.7476 23.4937C30.7047 23.4473 30.6718 23.3926 30.651 23.333C30.6302 23.2733 30.6219 23.21 30.6267 23.147V18.5683ZM46.1094 29.027C42.6881 28.6803 36.6934 28.187 32.0001 28.187C27.3067 28.187 21.3121 28.6803 17.8934 29.027C17.4809 29.0685 17.0939 29.2463 16.7936 29.5321C16.4932 29.818 16.2966 30.1957 16.2347 30.6057C15.9094 32.691 15.5147 35.9977 15.5147 39.1017C15.5147 42.363 15.9494 46.7443 16.2854 49.4857C16.3344 49.9161 16.5286 50.317 16.8359 50.6224C17.1432 50.9277 17.5453 51.1194 17.9761 51.1657C21.4081 51.5123 27.3467 52.0003 32.0001 52.0003C36.6534 52.0003 42.5921 51.515 46.0267 51.1683C46.4576 51.1218 46.8597 50.9297 47.1666 50.6238C47.4735 50.3178 47.6669 49.9164 47.7147 49.4857C48.0507 46.7443 48.4881 42.3657 48.4881 39.1017C48.4881 35.9977 48.0907 32.691 47.7654 30.6057C47.7037 30.1961 47.5074 29.8187 47.2076 29.5329C46.9078 29.2471 46.5215 29.0691 46.1094 29.027ZM20.5494 35.0537H19.1761V32.307H24.6721V35.0537H23.2987V46.5043H20.5521L20.5494 35.0537ZM31.5414 32.7657V46.5043H34.2881V46.3683C34.5707 46.4572 34.8783 46.5025 35.2107 46.5043C35.7874 46.5135 36.3509 46.3316 36.8134 45.987C37.1844 45.7025 37.4741 45.3254 37.6534 44.8937C37.9467 44.2137 37.9574 43.5337 37.9547 43.3337V39.6003C37.9547 39.4003 37.9467 38.7203 37.6534 38.043C37.4741 37.6112 37.1844 37.2342 36.8134 36.9497C36.3513 36.6041 35.7877 36.4213 35.2107 36.4297C34.8774 36.4297 34.5707 36.483 34.2907 36.5657V32.7657H31.5414ZM42.0747 36.4297C40.3041 36.4297 38.8694 37.8643 38.8694 39.635V43.299C38.8694 44.1491 39.2071 44.9644 39.8082 45.5655C40.4094 46.1666 41.2246 46.5043 42.0747 46.5043C42.9249 46.5043 43.7401 46.1666 44.3413 45.5655C44.9424 44.9644 45.2801 44.1491 45.2801 43.299H42.5334C42.5246 43.4142 42.4726 43.5219 42.3878 43.6005C42.303 43.6791 42.1917 43.7227 42.0761 43.7227C41.9605 43.7227 41.8491 43.6791 41.7644 43.6005C41.6796 43.5219 41.6276 43.4142 41.6187 43.299V42.3843H45.2801V39.6377C45.2801 37.8643 43.8454 36.4297 42.0747 36.4297ZM42.0747 39.1763C42.3281 39.1763 42.5334 39.3817 42.5334 39.635H41.6187C41.6187 39.3817 41.8214 39.1763 42.0747 39.1763ZM34.2881 42.9497V39.9843C34.3678 39.8522 34.4588 39.7273 34.5601 39.611C34.8134 39.3123 35.0134 39.2057 35.1494 39.1843C35.193 39.3093 35.2129 39.4414 35.2081 39.5737V43.3603C35.209 43.493 35.1902 43.6252 35.1521 43.7523C35.0134 43.7257 34.8134 43.619 34.5601 43.3257C34.4597 43.2092 34.3696 43.0843 34.2907 42.9523L34.2881 42.9497ZM24.2134 43.299V36.4297H26.9601V43.299C26.9601 43.411 26.9654 43.5034 26.9761 43.5763C27.0987 43.4821 27.2232 43.363 27.3494 43.219C27.5361 43.0163 27.6827 42.8003 27.7787 42.611C27.8213 42.5353 27.8544 42.4547 27.8774 42.371V36.4297H30.6241V46.5043H27.8774V46.2323C27.5521 46.387 27.1574 46.5043 26.7361 46.5043L26.5361 46.491C26.0869 46.4384 25.6616 46.26 25.3094 45.9763C24.6161 45.4243 24.2161 44.5203 24.2161 43.299H24.2134Z" fill="url(#paint0_linear_252_538)"/>
<defs>
<linearGradient id="paint0_linear_252_538" x1="-1203.61" y1="2.66699" x2="-1203.31" y2="61.3413" gradientUnits="userSpaceOnUse">
<stop stop-color="white"/>
<stop offset="1" stop-color="#E6E7E8"/>
</linearGradient>
</defs>
</svg>
